<svg width="96" height="96" viewBox="0 0 96 96" fill="none" xmlns="http://www.w3.org/2000/svg">
<path d="M82.8536 32.5124L81.8672 34.7752C81.1456 36.4317 78.8544 36.4317 78.1324 34.7752L77.1464 32.5124C75.3884 28.4779 72.222 25.2656 68.2708 23.5083L65.232 22.1569C63.5892 21.4261 63.5892 19.0352 65.232 18.3045L68.1008 17.0286C72.1536 15.226 75.3768 11.8949 77.1044 7.72332L78.1172 5.27812C78.8232 3.57396 81.1768 3.57396 81.8824 5.27812L82.8952 7.72332C84.6232 11.8949 87.8464 15.226 91.8992 17.0286L94.7676 18.3045C96.4108 19.0352 96.4108 21.4261 94.7676 22.1569L91.7292 23.5083C87.778 25.2656 84.6116 28.4779 82.8536 32.5124ZM11.9672 12H56V20H16V76H80V44H88V80.0264C88 82.2208 86.1788 84 84.0328 84H11.9672C9.7762 84 8 82.2204 8 80.0264V15.9736C8 13.779 9.82124 12 11.9672 12ZM42.4876 33.6584L62.0032 46.6688C62.7384 47.1588 62.9372 48.1524 62.4468 48.8876C62.3296 49.0632 62.1788 49.214 62.0032 49.3312L42.4876 62.3416C41.7524 62.832 40.7588 62.6332 40.2688 61.898C40.0936 61.6352 40 61.3264 40 61.0104V34.9896C40 34.106 40.7164 33.3896 41.6 33.3896C41.916 33.3896 42.2248 33.4831 42.4876 33.6584Z" fill="black"/>
</svg>
